<svg width="116" height="25" viewBox="0 0 116 25" fill="none" xmlns="http://www.w3.org/2000/svg">
<path d="M0.0458751 24V1.92H10.4779C14.0619 1.92 15.8539 3.712 15.8539 7.296V9.216C15.8539 9.94133 15.6405 10.56 15.2139 11.072L14.0939 12.416L15.4379 13.536C16.1419 14.112 16.4939 14.9653 16.4939 16.096V18.624C16.4939 22.208 14.7019 24 11.1179 24H0.0458751ZM4.65388 19.84H10.9259C11.5659 19.84 11.8859 19.52 11.8859 18.88V15.68C11.8859 15.04 11.5659 14.72 10.9259 14.72H4.65388V19.84ZM4.65388 10.56H10.2859C10.9259 10.56 11.2459 10.24 11.2459 9.6V7.04C11.2459 6.4 10.9259 6.08 10.2859 6.08H4.65388V10.56ZM24.8889 24C21.4329 24 19.7049 22.304 19.7049 18.912C19.7049 15.52 21.4329 13.824 24.8889 13.824H29.3049V11.968C29.3049 11.2853 28.9635 10.944 28.2809 10.944H21.4969V8.544L23.4169 7.104H28.5369C31.9929 7.104 33.7209 8.832 33.7209 12.288V24H24.8889ZM24.1209 19.136C24.1209 19.8187 24.4622 20.16 25.1449 20.16H29.3049V17.216H25.1449C24.4622 17.216 24.1209 17.5573 24.1209 18.24V19.136ZM38.0666 17.856V0.32H42.4826V18.304C42.4826 19.6267 43.1653 20.3627 44.5306 20.512V24.32C40.2213 24.32 38.0666 22.1653 38.0666 17.856ZM52.3889 24C48.9329 24 47.2049 22.304 47.2049 18.912C47.2049 15.52 48.9329 13.824 52.3889 13.824H56.8049V11.968C56.8049 11.2853 56.4635 10.944 55.7809 10.944H48.9969V8.544L50.9169 7.104H56.0369C59.4929 7.104 61.2209 8.832 61.2209 12.288V24H52.3889ZM51.6209 19.136C51.6209 19.8187 51.9622 20.16 52.6449 20.16H56.8049V17.216H52.6449C51.9622 17.216 51.6209 17.5573 51.6209 18.24V19.136ZM65.6946 24V7.104H75.0386C78.4946 7.104 80.2226 8.832 80.2226 12.288V24H75.8066V11.968C75.8066 11.2853 75.4653 10.944 74.7826 10.944H70.1106V24H65.6946ZM84.4386 18.816V12.288C84.4386 8.832 86.1666 7.104 89.6226 7.104H95.5746L97.4946 8.544V10.944H89.8786C89.196 10.944 88.8546 11.2853 88.8546 11.968V19.136C88.8546 19.8187 89.196 20.16 89.8786 20.16H97.4946V22.56L95.5746 24H89.6226C86.1666 24 84.4386 22.272 84.4386 18.816ZM101.001 18.816V12.288C101.001 8.832 102.729 7.104 106.185 7.104H110.345C113.801 7.104 115.529 8.832 115.529 12.288V17.184H105.417V19.136C105.417 19.8187 105.758 20.16 106.441 20.16H114.889V22.56L112.969 24H106.185C102.729 24 101.001 22.272 101.001 18.816ZM105.417 13.792H111.113V11.968C111.113 11.2853 110.772 10.944 110.089 10.944H106.441C105.758 10.944 105.417 11.2853 105.417 11.968V13.792Z" fill="white"/>
</svg>
